<svg xmlns="http://www.w3.org/2000/svg" width="21" height="18" viewBox="0 0 21 18">
  <g id="Component_21_3" data-name="Component 21 – 3" transform="translate(0.75 0.75)">
    <path id="Path_13766" data-name="Path 13766" d="M2.25,12.75V12A2.25,2.25,0,0,1,4.5,9.75h15A2.25,2.25,0,0,1,21.75,12v.75M13.06,6.31,10.94,4.19a1.5,1.5,0,0,0-1.061-.44H4.5A2.25,2.25,0,0,0,2.25,6V18A2.25,2.25,0,0,0,4.5,20.25h15A2.25,2.25,0,0,0,21.75,18V9A2.25,2.25,0,0,0,19.5,6.75H14.121a1.5,1.5,0,0,1-1.06-.44Z" transform="translate(-2.25 -3.75)" fill="none" stroke="#a0afc4" stroke-linecap="round" stroke-linejoin="round" stroke-width="1.5"/>
  </g>
</svg>