<svg xmlns="http://www.w3.org/2000/svg" width="21.003" height="19.5" viewBox="0 0 21.003 19.5">
  <path id="Path_13765" data-name="Path 13765" d="M15,19.128a9.415,9.415,0,0,0,6.746-.58,4.125,4.125,0,0,0-7.533-2.493M15,19.128v0a6.348,6.348,0,0,0-.786-3.07M15,19.128v.106a12.389,12.389,0,0,1-12.75,0v-.109a6.375,6.375,0,0,1,11.964-3.07M12,6.375A3.375,3.375,0,1,1,8.625,3,3.375,3.375,0,0,1,12,6.375Zm8.25,2.25A2.625,2.625,0,1,1,17.625,6,2.625,2.625,0,0,1,20.25,8.625Z" transform="translate(-1.499 -2.25)" fill="none" stroke="#a0afc4" stroke-linecap="round" stroke-linejoin="round" stroke-width="1.5"/>
</svg>