  <svg
    id="Group_135"
    data-name="Group 135"
    xmlns="http://www.w3.org/2000/svg"
    width="22.27"
    height="22.27"
    viewBox="0 0 22.27 22.27">
    <circle
      id="Ellipse_35"
      data-name="Ellipse 35"
      cx="8.802"
      cy="8.802"
      r="8.802"
      transform="translate(2.515 2.78)"
      fill="#696969"
    />
    <path
      id="Subtraction_2"
      data-name="Subtraction 2"
      d="M11.14,22.27A10.894,10.894,0,0,1,6.8,21.393,11.113,11.113,0,0,1,.877,15.48,10.87,10.87,0,0,1,0,11.14,10.894,10.894,0,0,1,.877,6.8,11.126,11.126,0,0,1,6.789.877,10.88,10.88,0,0,1,11.131,0a10.912,10.912,0,0,1,4.344.876,11.133,11.133,0,0,1,5.919,5.913,10.9,10.9,0,0,1,.877,4.341,10.894,10.894,0,0,1-.877,4.344,11.123,11.123,0,0,1-5.913,5.919A10.888,10.888,0,0,1,11.14,22.27Zm-.006-8.5a5.858,5.858,0,0,0-3.261.977,6.142,6.142,0,0,0-2.24,2.592h11a6.158,6.158,0,0,0-2.24-2.592A5.858,5.858,0,0,0,11.134,13.772Zm3.837-5.745h0l1.359,1.346.776-.775L14.971,6.462,12.849,8.6l.775.775L14.97,8.028Zm-7.671,0h0L8.646,9.374,9.422,8.6,7.3,6.462,5.163,8.6l.775.775L7.3,8.028Z"
      transform="translate(0 0)"
      fill="#d3d3d3"
    />
  </svg>