  <svg
    id="Component_5_2"
    data-name="Component 5 – 2"
    xmlns="http://www.w3.org/2000/svg"
    width="22.27"
    height="22.27"
    viewBox="0 0 22.27 22.27">
    <circle
      id="Ellipse_38"
      data-name="Ellipse 38"
      cx="8.802"
      cy="8.802"
      r="8.802"
      transform="translate(2.385 2.78)"
      fill="#f6f9fc"
    />
    <path
      id="sentiment_satisfied_FILL1_wght200_GRAD0_opsz24"
      d="M135.233-830.578a1.318,1.318,0,0,0,.976-.4,1.346,1.346,0,0,0,.4-.981,1.318,1.318,0,0,0-.4-.976,1.346,1.346,0,0,0-.981-.4,1.318,1.318,0,0,0-.976.4,1.346,1.346,0,0,0-.4.981,1.318,1.318,0,0,0,.4.976A1.346,1.346,0,0,0,135.233-830.578Zm-8.185,0a1.318,1.318,0,0,0,.976-.4,1.346,1.346,0,0,0,.4-.981,1.318,1.318,0,0,0-.4-.976,1.346,1.346,0,0,0-.981-.4,1.318,1.318,0,0,0-.976.4,1.346,1.346,0,0,0-.4.981,1.318,1.318,0,0,0,.4.976A1.346,1.346,0,0,0,127.048-830.578Zm4.087,7.756a5.83,5.83,0,0,0,3.261-.977,6.121,6.121,0,0,0,2.24-2.592H135.4a5.072,5.072,0,0,1-1.809,1.809,4.759,4.759,0,0,1-2.459.665,4.758,4.758,0,0,1-2.459-.665,5.072,5.072,0,0,1-1.809-1.809h-1.232a6.121,6.121,0,0,0,2.24,2.592A5.83,5.83,0,0,0,131.135-822.822Zm0,5.092a10.852,10.852,0,0,1-4.343-.876,11.253,11.253,0,0,1-3.537-2.379,11.241,11.241,0,0,1-2.381-3.534,10.83,10.83,0,0,1-.877-4.341,10.852,10.852,0,0,1,.877-4.343,11.252,11.252,0,0,1,2.379-3.537,11.239,11.239,0,0,1,3.534-2.381,10.829,10.829,0,0,1,4.341-.877,10.853,10.853,0,0,1,4.343.876,11.253,11.253,0,0,1,3.537,2.379,11.241,11.241,0,0,1,2.381,3.534,10.83,10.83,0,0,1,.877,4.341,10.853,10.853,0,0,1-.877,4.343,11.252,11.252,0,0,1-2.379,3.537,11.239,11.239,0,0,1-3.534,2.381A10.831,10.831,0,0,1,131.139-817.73Z"
      transform="translate(-120 840)"
      fill="#c3d842"
    />
  </svg>