  <svg
    id="Component_3_2"
    data-name="Component 3 – 2"
    xmlns="http://www.w3.org/2000/svg"
    width="22.27"
    height="22.27"
    viewBox="0 0 22.27 22.27">
    <circle
      id="Ellipse_36"
      data-name="Ellipse 36"
      cx="8.802"
      cy="8.802"
      r="8.802"
      transform="translate(2.472 2.779)"
      fill="#f6f9fc"
    />
    <path
      id="Subtraction_3"
      data-name="Subtraction 3"
      d="M11.14,22.27A10.894,10.894,0,0,1,6.8,21.393,11.113,11.113,0,0,1,.877,15.48,10.87,10.87,0,0,1,0,11.14,10.894,10.894,0,0,1,.877,6.8,11.126,11.126,0,0,1,6.789.877,10.88,10.88,0,0,1,11.131,0a10.912,10.912,0,0,1,4.344.876,11.133,11.133,0,0,1,5.919,5.913,10.9,10.9,0,0,1,.877,4.341,10.894,10.894,0,0,1-.877,4.344,11.123,11.123,0,0,1-5.913,5.919A10.888,10.888,0,0,1,11.14,22.27Zm0-8.065a4.852,4.852,0,0,1,2.5.677,5.186,5.186,0,0,1,1.84,1.839h1.253a6.26,6.26,0,0,0-2.277-2.636,6.035,6.035,0,0,0-6.632,0,6.244,6.244,0,0,0-2.277,2.636H6.795a5.169,5.169,0,0,1,1.84-1.839A4.852,4.852,0,0,1,11.135,14.205Zm4.087-7.543a1.321,1.321,0,0,0-.976.4,1.35,1.35,0,0,0-.4.981,1.324,1.324,0,0,0,.4.976,1.35,1.35,0,0,0,.981.4,1.324,1.324,0,0,0,.976-.4,1.35,1.35,0,0,0,.4-.981,1.321,1.321,0,0,0-.4-.976A1.35,1.35,0,0,0,15.222,6.663Zm-8.185,0a1.321,1.321,0,0,0-.976.4,1.35,1.35,0,0,0-.4.981,1.324,1.324,0,0,0,.4.976,1.35,1.35,0,0,0,.981.4,1.324,1.324,0,0,0,.976-.4,1.35,1.35,0,0,0,.4-.981,1.321,1.321,0,0,0-.4-.976A1.35,1.35,0,0,0,7.037,6.663Z"
      transform="translate(0 0)"
      fill="#ef642d"
    />
  </svg>