  <svg
    id="Component_4_2"
    data-name="Component 4 – 2"
    xmlns="http://www.w3.org/2000/svg"
    width="22.27"
    height="22.27"
    viewBox="0 0 22.27 22.27">
    <circle
      id="Ellipse_37"
      data-name="Ellipse 37"
      cx="8.802"
      cy="8.802"
      r="8.802"
      transform="translate(2.428 2.78)"
      fill="#f6f9fc"
    />
    <path
      id="Subtraction_5"
      data-name="Subtraction 5"
      d="M11.14,22.27A10.894,10.894,0,0,1,6.8,21.393,11.113,11.113,0,0,1,.877,15.48,10.87,10.87,0,0,1,0,11.14,10.894,10.894,0,0,1,.877,6.8,11.126,11.126,0,0,1,6.789.877,10.88,10.88,0,0,1,11.131,0a10.912,10.912,0,0,1,4.344.876,11.133,11.133,0,0,1,5.919,5.913,10.9,10.9,0,0,1,.877,4.341,10.894,10.894,0,0,1-.877,4.344,11.123,11.123,0,0,1-5.913,5.919A10.888,10.888,0,0,1,11.14,22.27ZM6.573,15.08v1.057h8.983V15.08Zm8.649-8.418a1.321,1.321,0,0,0-.976.4,1.35,1.35,0,0,0-.4.981,1.324,1.324,0,0,0,.4.976,1.35,1.35,0,0,0,.981.4,1.324,1.324,0,0,0,.976-.4,1.35,1.35,0,0,0,.4-.981,1.321,1.321,0,0,0-.4-.976A1.35,1.35,0,0,0,15.222,6.663Zm-8.185,0a1.321,1.321,0,0,0-.976.4,1.35,1.35,0,0,0-.4.981,1.324,1.324,0,0,0,.4.976,1.35,1.35,0,0,0,.981.4,1.324,1.324,0,0,0,.976-.4,1.35,1.35,0,0,0,.4-.981,1.321,1.321,0,0,0-.4-.976A1.35,1.35,0,0,0,7.037,6.663Z"
      transform="translate(0 0)"
      fill="#ffba31"
    />
  </svg>