  <svg
    id="Component_6_2"
    data-name="Component 6 – 2"
    xmlns="http://www.w3.org/2000/svg"
    width="22.27"
    height="22.27"
    viewBox="0 0 22.27 22.27">
    <circle
      id="Ellipse_39"
      data-name="Ellipse 39"
      cx="8.802"
      cy="8.802"
      r="8.802"
      transform="translate(2.342 2.779)"
      fill="#f6f9fc"
    />
    <path
      id="Subtraction_6"
      data-name="Subtraction 6"
      d="M11.14,22.27A10.894,10.894,0,0,1,6.8,21.393,11.113,11.113,0,0,1,.877,15.48,10.87,10.87,0,0,1,0,11.14,10.894,10.894,0,0,1,.877,6.8,11.126,11.126,0,0,1,6.789.877,10.88,10.88,0,0,1,11.131,0a10.912,10.912,0,0,1,4.344.876,11.133,11.133,0,0,1,5.919,5.913,10.9,10.9,0,0,1,.877,4.341,10.894,10.894,0,0,1-.877,4.344,11.123,11.123,0,0,1-5.913,5.919A10.888,10.888,0,0,1,11.14,22.27Zm-5.506-8.5a6.138,6.138,0,0,0,2.24,2.592,5.931,5.931,0,0,0,6.521,0,6.153,6.153,0,0,0,2.24-2.592Zm9.337-5.745h0l1.359,1.346.776-.775L14.971,6.462,12.849,8.6l.775.775L14.97,8.028Zm-7.671,0h0L8.646,9.374,9.422,8.6,7.3,6.462,5.163,8.6l.775.775L7.3,8.028Z"
      transform="translate(0 0)"
      fill="#78bc50"
    />
  </svg>