<svg xmlns="http://www.w3.org/2000/svg" width="19.5" height="19.498" viewBox="0 0 19.5 19.498">
  <path id="Path_13774" data-name="Path 13774" d="M6.75,2.994v2.25m10.5-2.25v2.25M3,18.744V7.491a2.25,2.25,0,0,1,2.25-2.25h13.5A2.25,2.25,0,0,1,21,7.491V18.742m-18,0a2.25,2.25,0,0,0,2.25,2.25h13.5A2.25,2.25,0,0,0,21,18.742m-18,0v-7.5a2.25,2.25,0,0,1,2.25-2.25h13.5A2.25,2.25,0,0,1,21,11.242v7.5m-6.75-6H16.5m-9,2.25H12m0-2.25h.005v.006H12v-.006Zm0,4.5h.006v.006H12v0Zm-2.25,0h.005v.006h0v-.006Zm-2.25,0H7.5v0H7.5v0ZM14.249,15h.005V15h-.005Zm0,2.247h.006v.006h-.006Zm2.25-2.248h.006V15H16.5v-.005Z" transform="translate(-2.248 -2.244)" fill="none" stroke="#000" stroke-linecap="round" stroke-linejoin="round" stroke-width="1.5"/>
</svg>
