<svg xmlns="http://www.w3.org/2000/svg" width="16.515" height="16.517" viewBox="0 0 16.515 16.517">
  <path id="Path_13762" data-name="Path 13762" d="M11.055,3.414a6.051,6.051,0,0,1,1.135-1.085,2.33,2.33,0,0,1,2.327-.035,6.04,6.04,0,0,1,1.166,1.05,6.092,6.092,0,0,1,1.028,1.191,2.47,2.47,0,0,1-.034,2.377,6.084,6.084,0,0,1-1.062,1.16L8.563,14.866a8.093,8.093,0,0,1-2.387,1.9,7.911,7.911,0,0,1-3.017.214l-.21-.005c-.47-.012-.7-.018-.841-.173s-.118-.394-.081-.873l.02-.26a8.337,8.337,0,0,1,.42-2.626,8.157,8.157,0,0,1,1.624-2.08Z" transform="translate(-1.264 -1.219)" fill="none" stroke="#9b9b9b" stroke-linejoin="round" stroke-width="1.5"/>
</svg>
