<svg id="pdf_1_" data-name="pdf (1)" xmlns="http://www.w3.org/2000/svg" width="24.088" height="31.37" viewBox="0 0 24.088 31.37">
  <path id="Path_1447" data-name="Path 1447" d="M23.577,0H7.32C6.867,0,6.5.367,6.5,1.079V30.81a.844.844,0,0,0,.82.56H29.768a.844.844,0,0,0,.82-.56V7.27c0-.39-.052-.515-.144-.608L23.926.144A.5.5,0,0,0,23.577,0Z" transform="translate(-6.5)" fill="#e9e9e0"/>
  <path id="Path_1448" data-name="Path 1448" d="M37.5.151V6.789h6.638Z" transform="translate(-20.134 -0.066)" fill="#d9d7ca"/>
  <path id="Path_1449" data-name="Path 1449" d="M18.592,21.706h0a.9.9,0,0,1-.542-.183,1.342,1.342,0,0,1-.625-1.256c.1-.912,1.23-1.867,3.353-2.839A37.6,37.6,0,0,0,22.9,11.406c-.559-1.217-1.1-2.8-.706-3.721A1.075,1.075,0,0,1,22.829,7a2.75,2.75,0,0,1,.569-.1c.282,0,.531.364.706.588s.54.657-.209,3.81a17.9,17.9,0,0,0,2.85,4.236,10.9,10.9,0,0,1,1.881-.2c.877,0,1.409.2,1.626.626a1.134,1.134,0,0,1-.218,1.21,1.489,1.489,0,0,1-1.244.667,3.724,3.724,0,0,1-2.359-1.28,26.841,26.841,0,0,0-4.945,1.581,15.892,15.892,0,0,1-1.335,2.381C19.578,21.33,19.082,21.706,18.592,21.706Zm1.491-2.871c-1.2.673-1.685,1.226-1.72,1.537-.006.052-.021.187.241.388C18.688,20.733,19.175,20.51,20.083,18.834Zm7.639-2.488c.457.351.568.529.867.529a.844.844,0,0,0,.678-.247A.887.887,0,0,0,29.4,16.4c-.069-.036-.16-.11-.658-.11A8.192,8.192,0,0,0,27.723,16.346Zm-4.185-3.687a39.933,39.933,0,0,1-1.5,4.237,27.99,27.99,0,0,1,3.639-1.132A19.176,19.176,0,0,1,23.538,12.659Zm-.34-4.74a1.343,1.343,0,0,0,.054,1.8C23.783,8.535,23.222,7.911,23.2,7.919Z" transform="translate(-11.302 -3.038)" fill="#cc4b4c"/>
  <path id="Path_1450" data-name="Path 1450" d="M29.768,48.523H7.32a.82.82,0,0,1-.82-.82V39H30.588v8.7A.82.82,0,0,1,29.768,48.523Z" transform="translate(-6.5 -17.153)" fill="#cc4b4c"/>
  <g id="Group_899" data-name="Group 899" transform="translate(5.178 24.045)">
    <path id="Path_1451" data-name="Path 1451" d="M16.663,48.568h-.919V42.924h1.623a2.278,2.278,0,0,1,.712.115,1.936,1.936,0,0,1,.632.345,1.8,1.8,0,0,1,.452.555,1.538,1.538,0,0,1,.173.732,2,2,0,0,1-.146.778,1.625,1.625,0,0,1-.406.586,1.83,1.83,0,0,1-.628.367,2.417,2.417,0,0,1-.812.13h-.682v2.037Zm0-4.948v2.236h.843a1,1,0,0,0,.333-.058.84.84,0,0,0,.3-.188.917.917,0,0,0,.222-.364,1.722,1.722,0,0,0,.084-.578,1.563,1.563,0,0,0-.038-.318.917.917,0,0,0-.157-.345.928.928,0,0,0-.333-.276,1.238,1.238,0,0,0-.567-.111h-.689Z" transform="translate(-15.744 -42.924)" fill="#fff"/>
    <path id="Path_1452" data-name="Path 1452" d="M28.641,45.589a4.147,4.147,0,0,1-.15,1.191,2.96,2.96,0,0,1-.379.827,1.948,1.948,0,0,1-.517.525,2.6,2.6,0,0,1-.555.287,2.3,2.3,0,0,1-.49.123,3.271,3.271,0,0,1-.329.026H24.084V42.924h1.7a3.231,3.231,0,0,1,1.252.226,2.6,2.6,0,0,1,.9.6,2.468,2.468,0,0,1,.532.854A2.828,2.828,0,0,1,28.641,45.589Zm-2.726,2.305a1.522,1.522,0,0,0,1.348-.6,3.032,3.032,0,0,0,.413-1.731,2.932,2.932,0,0,0-.084-.7,1.491,1.491,0,0,0-.325-.624,1.718,1.718,0,0,0-.655-.452,2.82,2.82,0,0,0-1.072-.173H25v4.274Z" transform="translate(-19.412 -42.924)" fill="#fff"/>
    <path id="Path_1453" data-name="Path 1453" d="M35.532,43.621V45.4h2.359v.628H35.532v2.543H34.6V42.924h3.53v.7Z" transform="translate(-24.036 -42.924)" fill="#fff"/>
  </g>
</svg>
