<svg xmlns="http://www.w3.org/2000/svg" width="15.915" height="15.709" viewBox="0 0 15.915 15.709">
  <g id="Component_36_1" data-name="Component 36 – 1" transform="translate(0.706 0.5)">
    <path id="Path_13794" data-name="Path 13794" d="M11,10h5.72" transform="translate(-4.463 -4.28)" fill="none" stroke="#7c7c7c" stroke-linecap="round" stroke-linejoin="round" stroke-width="1"/>
    <path id="Path_13795" data-name="Path 13795" d="M11,14h4.086" transform="translate(-4.463 -5.011)" fill="none" stroke="#7c7c7c" stroke-linecap="round" stroke-linejoin="round" stroke-width="1"/>
    <path id="Path_13796" data-name="Path 13796" d="M11,18h2.451" transform="translate(-4.463 -5.743)" fill="none" stroke="#7c7c7c" stroke-linecap="round" stroke-linejoin="round" stroke-width="1"/>
    <path id="Path_13797" data-name="Path 13797" d="M11,6h8.172" transform="translate(-4.463 -3.549)" fill="none" stroke="#7c7c7c" stroke-linecap="round" stroke-linejoin="round" stroke-width="1"/>
    <path id="Path_13798" data-name="Path 13798" d="M6.269,18.115c-.321.362-1.177,1.788-1.634,1.788M3,18.115c.321.362,1.177,1.788,1.634,1.788m0,0V15" transform="translate(-3 -5.194)" fill="none" stroke="#7c7c7c" stroke-linecap="round" stroke-linejoin="round" stroke-width="1"/>
    <path id="Path_13799" data-name="Path 13799" d="M3,4.788C3.321,4.426,4.177,3,4.634,3M6.269,4.788C5.947,4.426,5.092,3,4.634,3m0,0V7.9" transform="translate(-3 -3)" fill="none" stroke="#7c7c7c" stroke-linecap="round" stroke-linejoin="round" stroke-width="1"/>
  </g>
</svg>