<svg xmlns="http://www.w3.org/2000/svg" width="19.502" height="19.5" viewBox="0 0 19.502 19.5">
  <g id="Group_16754" data-name="Group 16754" transform="translate(-2.249 -2.25)">
    <path id="Path_13411" data-name="Path 13411" d="M6.938,10a6.072,6.072,0,0,0-1.438.114A3.313,3.313,0,0,0,3,13.385a9.081,9.081,0,0,0,.515,2.074c.807,2.621,2.164,4.9,5.2,5.441a14.807,14.807,0,0,0,2.444.1h1.675a14.808,14.808,0,0,0,2.444-.1c3.039-.546,4.4-2.821,5.2-5.441A9.075,9.075,0,0,0,21,13.385a3.313,3.313,0,0,0-2.5-3.271A6.073,6.073,0,0,0,17.063,10" fill="none" stroke="#848484" stroke-linecap="round" stroke-width="1.5"/>
    <path id="Path_13412" data-name="Path 13412" d="M12,3V14M12,3c.468,0,.824.438,1.536,1.314L14.5,5.5M12,3c-.468,0-.824.438-1.536,1.314L9.5,5.5" fill="none" stroke="#848484" stroke-linecap="round" stroke-linejoin="round" stroke-width="1.5"/>
  </g>
</svg>