<svg id="Group_16909" data-name="Group 16909" xmlns="http://www.w3.org/2000/svg" width="21.076" height="21.076" viewBox="0 0 21.076 21.076">
  <path id="Path_11353" data-name="Path 11353" d="M0,0H21.076V21.076H0Z" fill="none"/>
  <path id="Path_11354" data-name="Path 11354" d="M18.807,10.9a7.9,7.9,0,1,0-7.9,7.9" transform="translate(-0.366 -0.366)" fill="none" stroke="#fff" stroke-linecap="round" stroke-linejoin="round" stroke-width="2"/>
  <path id="Path_11355" data-name="Path 11355" d="M3.6,9H18.353" transform="translate(-0.439 -1.097)" fill="none" stroke="#fff" stroke-linecap="round" stroke-linejoin="round" stroke-width="2"/>
  <path id="Path_11356" data-name="Path 11356" d="M3.6,15h7.376" transform="translate(-0.439 -1.828)" fill="none" stroke="#fff" stroke-linecap="round" stroke-linejoin="round" stroke-width="2"/>
  <path id="Path_11357" data-name="Path 11357" d="M11.264,3a14.928,14.928,0,0,0,0,15.807" transform="translate(-1.097 -0.366)" fill="none" stroke="#fff" stroke-linecap="round" stroke-linejoin="round" stroke-width="2"/>
  <path id="Path_11358" data-name="Path 11358" d="M12.5,3a14.84,14.84,0,0,1,2.2,7.9" transform="translate(-1.523 -0.366)" fill="none" stroke="#fff" stroke-linecap="round" stroke-linejoin="round" stroke-width="2"/>
  <path id="Path_11359" data-name="Path 11359" d="M17.634,20.147V14m2.634,2.634L17.634,14,15,16.634" transform="translate(-1.828 -1.706)" fill="none" stroke="#fff" stroke-linecap="round" stroke-linejoin="round" stroke-width="2"/>
</svg>